<svg xmlns="http://www.w3.org/2000/svg" viewBox="0 0 9.75 12.82"><defs><style>.cls-1{fill:#010002;}.cls-2{fill:#fefefe;}</style></defs><title>Asset 3</title><g id="Layer_2" data-name="Layer 2"><g id="Layer_1-2" data-name="Layer 1"><path class="cls-1" d="M4.63,0h.5A2.13,2.13,0,0,1,6.37.44,2.54,2.54,0,0,1,7.3,2c.06.31.07.33.38.33H8.81a.88.88,0,0,1,.94.94q0,4.34,0,8.67a.8.8,0,0,1-.9.89H.9a.8.8,0,0,1-.9-.89Q0,7.6,0,3.26a.87.87,0,0,1,.92-.94c.4,0,.8,0,1.2,0A.28.28,0,0,0,2.45,2,2.5,2.5,0,0,1,3.54.32,2.24,2.24,0,0,1,4.63,0Z"/><path class="cls-2" d="M8.88,7.63c0,1.38,0,2.77,0,4.15,0,.19,0,.23-.23.23H1.1c-.19,0-.23,0-.23-.23q0-4.17,0-8.35c0-.19,0-.23.23-.23H8.65c.19,0,.23,0,.23.23C8.87,4.83,8.88,6.23,8.88,7.63Z"/><path class="cls-2" d="M6.46,2.4h-3c-.15,0-.2,0-.17-.19A1.62,1.62,0,0,1,4.91.8,1.62,1.62,0,0,1,6.46,2.4Z"/><path class="cls-1" d="M4.9,4H6c.29,0,.47.16.48.4s-.18.4-.47.4H3.75c-.29,0-.47-.16-.47-.4s.18-.4.47-.4Z"/></g></g></svg>