<svg xmlns="http://www.w3.org/2000/svg" viewBox="0 0 9.75 12.82"><defs><style>.cls-1{fill:#fefefe;}</style></defs><title>cart-white</title><g id="Layer_2" data-name="Layer 2"><g id="Layer_1-2" data-name="Layer 1"><path class="cls-1" d="M6.46,2.4h-3c-.15,0-.2,0-.17-.19A1.62,1.62,0,0,1,4.91.8,1.62,1.62,0,0,1,6.46,2.4ZM3.54.32A2.5,2.5,0,0,0,2.45,2a.28.28,0,0,1-.33.28c-.4,0-.8,0-1.2,0A.87.87,0,0,0,0,3.26Q0,7.6,0,11.93a.8.8,0,0,0,.9.89H8.85a.8.8,0,0,0,.9-.89q0-4.34,0-8.67a.88.88,0,0,0-.94-.94H7.68c-.31,0-.33,0-.38-.33A2.54,2.54,0,0,0,6.37.44,2.13,2.13,0,0,0,5.13,0h-.5A2.24,2.24,0,0,0,3.54.32Zm5.33,7.3c0,1.38,0,2.77,0,4.15,0,.19,0,.23-.23.23H1.1c-.19,0-.23,0-.23-.23q0-4.17,0-8.35c0-.19,0-.23.23-.23H8.65c.19,0,.23,0,.23.23C8.87,4.83,8.88,6.23,8.88,7.63ZM3.75,4c-.29,0-.47.16-.47.4s.18.4.47.4H6c.29,0,.47-.16.47-.4S6.29,4,6,4H3.75Z"/></g></g></svg>